<?xml version="1.0" encoding="UTF-8" standalone="no"?>
<svg width="50px" height="50px" viewBox="0 0 50 50" version="1.1" xmlns="http://www.w3.org/2000/svg" xmlns:xlink="http://www.w3.org/1999/xlink">
    <!-- Generator: Sketch 39.1 (31720) - http://www.bohemiancoding.com/sketch -->
    <title>museum-selected</title>
    <desc>Created with Sketch.</desc>
    <defs></defs>
    <g id="Page-1" stroke="none" stroke-width="1" fill="none" fill-rule="evenodd">
        <g id="museum-selected" fill="#4990E2">
            <g id="noun_32342_cc" transform="translate(3.365385, 5.769231)">
                <path d="M21.6346154,0.0817307692 L39.9927885,11.83125 L3.27644231,11.83125 L21.6346154,0.0817307692 L21.6346154,0.0817307692 Z M11.6365385,13.6177885 L6.43942308,13.6177885 L6.43942308,30.3798077 L11.6360577,30.3798077 L11.6360577,13.6177885 L11.6365385,13.6177885 Z M20.2225962,13.6177885 L15.0254808,13.6177885 L15.0254808,30.3798077 L20.2221154,30.3798077 L20.2221154,13.6177885 L20.2225962,13.6177885 Z M37.3947115,13.6177885 L32.1975962,13.6177885 L32.1975962,30.3798077 L37.3942308,30.3798077 L37.3942308,13.6177885 L37.3947115,13.6177885 Z M28.8086538,13.6177885 L23.6115385,13.6177885 L23.6115385,30.3798077 L28.8081731,30.3798077 L28.8081731,13.6177885 L28.8086538,13.6177885 Z M39.9927885,32.0533654 L3.27644231,32.0533654 L3.27644231,34.3129808 L39.9932692,34.3129808 L39.9932692,32.0533654 L39.9927885,32.0533654 Z M43.2692308,36.1206731 L0,36.1206731 L0,38.3802885 L43.2692308,38.3802885 L43.2692308,36.1206731 L43.2692308,36.1206731 Z" id="Shape"></path>
            </g>
        </g>
    </g>
</svg>